<svg width="274" height="274" viewBox="0 0 274 274" fill="none" xmlns="http://www.w3.org/2000/svg">
<g filter="url(#filter0_bd)">
<circle cx="133" cy="133" r="109" stroke="black" stroke-width="2"/>
</g>
<g clip-path="url(#clip0)">
<path d="M168.681 125.999L119.181 100.8C115.159 98.7532 109 100.739 109 105.801V156.188C109 160.729 114.723 163.466 119.181 161.189L168.681 136.002C173.097 133.761 173.111 128.24 168.681 125.999Z" fill="white"/>
</g>
<path d="M127.019 56H131.123V49.184H136.259V45.992H131.123V42.44H137.987V39.152H127.019V56Z" fill="white"/>
<path d="M152.241 58.7275L156.162 59.9371L160.11 47.1401L156.188 45.9304L152.241 58.7275ZM158.571 45.2086C159.947 45.6331 161.177 44.9828 161.538 43.8132C161.906 42.6207 161.255 41.3903 159.879 40.9659C158.48 40.5344 157.25 41.1846 156.882 42.3772C156.521 43.5468 157.172 44.7771 158.571 45.2086Z" fill="white"/>
<path d="M174.703 63.6422C172.742 66.5175 173.686 68.5842 175.986 70.1525L177.712 71.3287L179.672 68.4534L178.462 67.6287C177.709 67.115 177.62 66.6481 178.067 65.9937L181.095 61.5518L183.316 63.0661L185.236 60.2502L183.015 58.736L184.854 56.0392L181.463 53.7273L179.624 56.4242L178.276 55.5048L176.356 58.3206L177.704 59.24L174.703 63.6422Z" fill="white"/>
<path d="M198.44 75.4659L199.922 74.2838L197.363 71.0751L181.902 83.4053L184.461 86.6139L190.915 81.4664C190.497 82.7513 190.648 84.442 191.875 85.9807C193.925 88.5513 197.658 88.9206 200.96 86.287C204.263 83.6534 204.696 79.9621 202.646 77.3915C201.419 75.8528 199.823 75.3144 198.44 75.4659ZM198.357 83.0221C196.687 84.3539 194.881 84.0137 193.908 82.7941C192.95 81.5932 193.002 79.7717 194.672 78.4399C196.342 77.1081 198.129 77.4632 199.087 78.6641C200.06 79.8838 200.027 81.6903 198.357 83.0221Z" fill="white"/>
<path d="M211.676 100.301C212.175 101.574 211.814 102.954 210.452 103.488L208.575 98.7075C210.048 98.3873 211.185 99.0498 211.676 100.301ZM208.566 108.405L206.97 104.339C206.177 104.29 205.404 103.897 204.983 102.824C204.501 101.596 204.866 100.292 206.444 99.5181L209.837 108.164C210.235 108.06 210.623 107.933 210.981 107.793C214.779 106.302 216.183 102.786 214.754 99.1444C213.298 95.4358 209.824 93.8087 205.869 95.3607C201.915 96.9126 200.492 100.513 201.93 104.177C203.149 107.283 205.894 108.758 208.566 108.405Z" fill="white"/>
<path d="M214.081 131.827C218.317 131.509 220.724 128.296 220.43 124.371C220.137 120.47 217.277 117.628 213.041 117.946C208.805 118.263 206.395 121.428 206.689 125.353C206.983 129.278 209.845 132.144 214.081 131.827ZM213.353 122.11C215.627 121.94 216.777 123.153 216.888 124.637C216.995 126.073 216.043 127.492 213.769 127.662C211.519 127.831 210.34 126.548 210.231 125.088C210.12 123.604 211.103 122.279 213.353 122.11Z" fill="white"/>
<path d="M205.616 176.408C204.473 175.748 204.147 174.729 204.915 173.399L206.187 171.195L209.803 173.283L208.531 175.487C207.763 176.817 206.697 177.032 205.616 176.408ZM214.807 171.433L200.216 163.009L198.164 166.563L203.672 169.743L203.18 170.596L195.92 170.45L193.604 174.462L201.326 174.43C200.695 177.059 201.844 179.053 203.673 180.109C206.209 181.573 209.299 180.973 211.363 177.398L214.807 171.433Z" fill="white"/>
<path d="M189.745 193.865C188.743 194.795 187.327 194.963 186.331 193.89L190.096 190.396C190.932 191.651 190.731 192.951 189.745 193.865ZM181.065 193.931L184.267 190.96C184.023 190.203 184.107 189.34 184.951 188.557C185.919 187.659 187.266 187.522 188.563 188.709L181.754 195.026C181.996 195.358 182.256 195.673 182.518 195.955C185.293 198.946 189.079 198.969 191.947 196.308C194.867 193.598 195.112 189.769 192.223 186.655C189.333 183.541 185.462 183.532 182.577 186.209C180.131 188.478 179.761 191.572 181.065 193.931Z" fill="white"/>
<path d="M158.112 201.714L154.436 203.485L157.83 210.534C159.392 213.777 162.233 214.753 165.217 213.316C166.969 212.473 168.014 210.771 168.199 209.11C169.719 210.163 171.574 210.255 173.391 209.38C174.969 208.62 175.879 207.356 176.124 206.039L176.853 207.553L180.55 205.772L174.74 193.707L171.042 195.487L174.197 202.039C174.958 203.618 174.466 204.92 173.06 205.597C171.655 206.274 170.33 205.846 169.57 204.268L166.415 197.716L162.739 199.486L165.894 206.038C166.654 207.616 166.163 208.919 164.757 209.595C163.352 210.272 162.027 209.845 161.267 208.266L158.112 201.714Z" fill="white"/>
<path d="M137.396 212.82C138.03 217.02 141.413 219.18 145.305 218.593C149.174 218.01 151.794 214.945 151.161 210.745C150.528 206.544 147.192 204.377 143.3 204.964C139.408 205.551 136.763 208.619 137.396 212.82ZM147.032 211.367C147.371 213.622 146.247 214.859 144.776 215.081C143.352 215.296 141.866 214.452 141.526 212.197C141.19 209.966 142.381 208.695 143.829 208.476C145.3 208.255 146.695 209.136 147.032 211.367Z" fill="white"/>
<path d="M122.93 210.175C123.449 206.733 121.702 205.281 118.949 204.866L116.884 204.555L116.366 207.996L117.813 208.214C118.715 208.35 118.997 208.732 118.879 209.515L118.078 214.831L115.42 214.431L114.912 217.801L117.57 218.201L117.084 221.429L121.142 222.041L121.628 218.813L123.242 219.056L123.75 215.686L122.136 215.443L122.93 210.175Z" fill="white"/>
<path d="M94.6373 207.633C93.4048 207.04 92.7314 205.783 93.3666 204.464L97.9939 206.692C97.1321 207.929 95.8482 208.216 94.6373 207.633ZM91.4048 199.577L95.3402 201.472C95.9553 200.969 96.7891 200.731 97.827 201.231C99.0162 201.804 99.6352 203.008 99.0048 204.649L90.6366 200.619C90.4163 200.965 90.2177 201.323 90.0511 201.669C88.2808 205.345 89.6429 208.877 93.1675 210.575C96.7569 212.303 100.411 211.133 102.254 207.305C104.097 203.478 102.691 199.871 99.1447 198.163C96.139 196.716 93.1236 197.501 91.4048 199.577Z" fill="white"/>
<path d="M59.7759 174.365L56.1178 176.477L55.0018 174.544C54.1858 173.131 54.5444 172.12 55.6668 171.472C56.7892 170.824 57.8439 171.019 58.6599 172.432L59.7759 174.365ZM53.5788 167.856C50.8976 169.404 49.9135 172.355 51.9775 175.93L55.3015 181.687L69.8923 173.263L67.8403 169.709L62.6026 172.733L61.3306 170.53C59.1826 166.81 55.9898 166.464 53.5788 167.856Z" fill="white"/>
<path d="M53.9745 155.982C58.0926 155.042 60.1311 151.894 59.4048 148.711C58.9615 146.769 57.7573 145.592 56.4452 145.128L58.2937 144.706L57.3804 140.705L44.3242 143.685L45.2374 147.686L47.0859 147.264C46.0996 148.228 45.5255 149.811 45.9688 151.754C46.7005 154.959 49.8564 156.922 53.9745 155.982ZM51.7655 146.196C53.848 145.721 55.2989 146.793 55.646 148.314C55.9878 149.811 55.1277 151.436 53.0452 151.911C50.9628 152.386 49.5299 151.285 49.1881 149.788C48.841 148.267 49.6831 146.672 51.7655 146.196Z" fill="white"/>
<path d="M52.4561 127.779C55.9264 128.039 57.2443 126.188 57.4524 123.412L57.6084 121.33L54.1382 121.07L54.0288 122.53C53.9606 123.439 53.6004 123.749 52.8106 123.69L47.4497 123.288L47.6506 120.607L44.2521 120.353L44.0512 123.033L40.7963 122.789L40.4896 126.882L43.7445 127.126L43.6226 128.753L47.021 129.008L47.143 127.38L52.4561 127.779Z" fill="white"/>
<path d="M61.5291 105.509L63.0285 101.688L50.5622 96.7957L49.0629 100.616L61.5291 105.509ZM48.5211 98.1862C49.0472 96.8457 48.4908 95.5702 47.3514 95.1231C46.1896 94.6671 44.9142 95.2236 44.3881 96.564C43.8532 97.9268 44.4097 99.2023 45.5714 99.6583C46.7108 100.105 47.9863 99.549 48.5211 98.1862Z" fill="white"/>
<path d="M65.7171 77.4299C66.5701 76.3603 67.9451 75.9834 69.0897 76.8962L65.8874 80.9117C64.8737 79.7963 64.8792 78.4807 65.7171 77.4299ZM74.2909 76.0711L71.5675 79.4861C71.9209 80.1977 71.9672 81.0635 71.2489 81.9641C70.4259 82.9962 69.1146 83.3318 67.655 82.352L73.446 75.0904C73.1569 74.7984 72.8529 74.5253 72.5527 74.2859C69.3628 71.742 65.6155 72.2838 63.1764 75.3423C60.6924 78.4571 61.0206 82.2798 64.3419 84.9284C67.6631 87.5769 71.4928 87.0088 73.9469 83.9315C76.0269 81.3233 75.9321 78.2087 74.2909 76.0711Z" fill="white"/>
<path d="M92.4412 67.2621L95.8122 64.9638L91.4048 58.4993C89.3769 55.5248 86.4818 54.9425 83.9238 56.6865C82.4365 57.7005 81.6929 59.1661 81.6541 60.5577L80.6536 59.0903L77.2628 61.4022L84.8067 72.4672L88.1976 70.1553L84.1012 64.1469C83.0737 62.6399 83.3387 61.2392 84.6276 60.3604C85.9166 59.4816 87.3172 59.7467 88.3447 61.2537L92.4412 67.2621Z" fill="white"/>
<path d="M105.998 55.6902C107.023 59.0156 109.228 59.5664 111.888 58.7458L113.883 58.1303L112.858 54.8049L111.459 55.2365C110.587 55.5053 110.167 55.2832 109.934 54.5264L108.349 49.3893L110.917 48.597L109.913 45.3404L107.344 46.1327L106.382 43.0137L102.461 44.2234L103.423 47.3424L101.863 47.8234L102.868 51.08L104.427 50.599L105.998 55.6902Z" fill="white"/>
<defs>
<filter id="filter0_bd" x="0" y="-0.000244141" width="274" height="274" filterUnits="userSpaceOnUse" color-interpolation-filters="sRGB">
<feFlood flood-opacity="0" result="BackgroundImageFix"/>
<feGaussianBlur in="BackgroundImage" stdDeviation="2"/>
<feComposite in2="SourceAlpha" operator="in" result="effect1_backgroundBlur"/>
<feColorMatrix in="SourceAlpha" type="matrix" values="0 0 0 0 0 0 0 0 0 0 0 0 0 0 0 0 0 0 127 0"/>
<feOffset dx="4" dy="4"/>
<feGaussianBlur stdDeviation="13.5"/>
<feColorMatrix type="matrix" values="0 0 0 0 0 0 0 0 0 0 0 0 0 0 0 0 0 0 0.3 0"/>
<feBlend mode="normal" in2="effect1_backgroundBlur" result="effect2_dropShadow"/>
<feBlend mode="normal" in="SourceGraphic" in2="effect2_dropShadow" result="shape"/>
</filter>
<clipPath id="clip0">
<rect width="63" height="62" fill="white" transform="translate(109 99.9998)"/>
</clipPath>
</defs>
</svg>
